<svg xmlns="http://www.w3.org/2000/svg" aria-hidden="true" style="position:absolute;width:0;height:0;overflow:hidden">
  <defs>
    <symbol id="icon-add" viewBox="0 0 32 32">
      <path d="M15.74 7.039a.975.975 0 0 0-.701.719l-.001.007c-.027.115-.049 1.787-.049 3.715l-.001 3.504-3.64.016c-3.967.016-3.789.003-4.073.316-.189.209-.251.377-.251.685 0 .316.093.545.292.727.297.269.153.259 4.031.275l3.637.016.016 3.637c.016 3.877.005 3.733.275 4.031.181.2.411.292.727.292s.545-.092.727-.292c.269-.297.259-.153.275-4.031l.016-3.637 3.637-.016c3.877-.016 3.733-.005 4.031-.275.2-.181.292-.411.292-.727s-.092-.545-.292-.727c-.297-.269-.153-.259-4.031-.275l-3.637-.016-.016-3.637c-.016-3.877-.005-3.733-.275-4.031-.223-.247-.635-.361-.987-.276z"/>
    </symbol>
    <symbol id="icon-arrow-down" viewBox="0 0 32 32">
      <path d="M5.067 11.019c-.403.175-.604.484-.604.932 0 .247.028.339.164.533.227.324 8.995 9.063 9.293 9.261.695.464 1.221.621 2.08.621s1.384-.157 2.08-.621c.341-.228 9.152-9.031 9.317-9.309.161-.272.187-.692.056-.944a.999.999 0 0 0-1.261-.474l.007-.002c-.14.057-1.545 1.425-4.705 4.581-3.096 3.091-4.581 4.537-4.747 4.624-.203.105-.319.125-.747.125s-.544-.02-.747-.125c-.165-.087-1.651-1.533-4.747-4.624-3.16-3.156-4.565-4.524-4.705-4.581a.894.894 0 0 0-.74.005l.006-.002z"/>
    </symbol>
    <symbol id="icon-logo" viewBox="0 0 32 32">
      <path fill="#1f1f1f" d="M24 0H8a8 8 0 0 0-8 8v16a8 8 0 0 0 8 8h16a8 8 0 0 0 8-8V8a8 8 0 0 0-8-8z" style="fill:var(--color1, #1f1f1f)"/>
      <path fill="#fff" d="M13.331 23.027c.245-1.272.453-2.61.747-3.949.145-.701-.032-.999-.815-.946s-1.657.027-2.49 0c-.833-.027-.982-.446-.502-1.044 2.363-2.918 4.753-5.8 7.134-8.674.267-.326.575-.558 1.014-.312s.349.549.276.915c-.263 1.339-.48 2.677-.77 3.989-.149.678.045.919.751.892a20.959 20.959 0 0 1 2.127 0c.403 0 .933-.21 1.141.339s-.231.781-.453 1.107a315.559 315.559 0 0 1-2.752 3.342 1579.8 1579.8 0 0 0-4.051 4.854c-.263.317-.557.571-1.005.41s-.353-.54-.353-.924z" style="fill:var(--color2, #fff)"/>
    </symbol>
    <symbol id="icon-burger" viewBox="0 0 32 32">
      <path d="M3.32 6.91c-.382.191-.547.518-.547 1.09s.165.899.547 1.09l.274.137h24.812l.274-.137c.382-.191.547-.518.547-1.09s-.165-.899-.547-1.09l-.274-.137H3.594l-.274.137zm0 8c-.382.191-.547.518-.547 1.09s.165.899.547 1.09l.274.137h24.812l.274-.137c.382-.191.547-.518.547-1.09s-.165-.899-.547-1.09l-.274-.137H3.594l-.274.137zm0 8c-.382.191-.547.518-.547 1.09s.165.899.547 1.09l.274.137h24.812l.274-.137c.382-.191.547-.518.547-1.09s-.165-.899-.547-1.09l-.274-.137H3.594l-.274.137z"/>
    </symbol>
    <symbol id="icon-user" viewBox="0 0 32 32">
      <path fill="#1f1f1f" d="M3.765 0h24.471a3.765 3.765 0 0 1 3.765 3.765v24.471a3.765 3.765 0 0 1-3.765 3.765H3.765A3.765 3.765 0 0 1 0 28.236V3.765A3.765 3.765 0 0 1 3.765 0z" style="fill:var(--color1, #1f1f1f)"/>
      <path fill="#151515" d="M21.49 14.745a5.333 5.333 0 1 1-10.666 0 5.333 5.333 0 0 1 10.666 0z" style="fill:var(--color2, #151515)"/>
      <path fill="#151515" d="M29.06 32.853c0-1.723-.339-3.429-.999-5.02s-1.626-3.038-2.844-4.256a13.128 13.128 0 0 0-9.276-3.843c-1.723 0-3.429.339-5.02.999s-3.038 1.626-4.256 2.844a13.128 13.128 0 0 0-3.843 9.276h26.237z" style="fill:var(--color2, #151515)"/>
    </symbol>
    <symbol id="icon-scroll-down" viewBox="0 0 32 32">
      <path d="M16.946 17.867a1.334 1.334 0 0 1-1.894 0l-6.107-6.12a1.334 1.334 0 1 0-1.894 1.88l6.12 6.12a4.001 4.001 0 0 0 5.654 0l6.12-6.12a1.337 1.337 0 0 0-.434-2.172 1.328 1.328 0 0 0-1.46.292l-6.107 6.12z"/>
    </symbol>
    <symbol id="icon-four-circles" viewBox="0 0 32 32">
      <path d="M6.674 3.097a4.805 4.805 0 0 0-3.576 3.576 8.74 8.74 0 0 0 0 3.986 4.805 4.805 0 0 0 3.576 3.576 8.74 8.74 0 0 0 3.986 0 4.805 4.805 0 0 0 3.576-3.576 8.74 8.74 0 0 0 0-3.986 4.805 4.805 0 0 0-3.576-3.576 8.74 8.74 0 0 0-3.986 0zm.607 2.597a6.088 6.088 0 0 1 2.771 0 2.123 2.123 0 0 1 1.587 1.587c.213.91.213 1.861 0 2.771a2.123 2.123 0 0 1-1.587 1.587 6.088 6.088 0 0 1-2.771 0 2.123 2.123 0 0 1-1.587-1.587 6.088 6.088 0 0 1 0-2.771 2.123 2.123 0 0 1 1.587-1.587zm-.607 12.07a4.804 4.804 0 0 0-3.576 3.576 8.74 8.74 0 0 0 0 3.986 4.807 4.807 0 0 0 3.576 3.576 8.713 8.713 0 0 0 3.986 0 4.804 4.804 0 0 0 3.576-3.576 8.74 8.74 0 0 0 0-3.986 4.807 4.807 0 0 0-3.576-3.576 8.713 8.713 0 0 0-3.986 0zm.607 2.597h.003a6.03 6.03 0 0 1 2.764 0h.003a2.121 2.121 0 0 1 1.587 1.587 6.06 6.06 0 0 1 0 2.771 2.123 2.123 0 0 1-1.587 1.587h-.003a6.03 6.03 0 0 1-2.764 0h-.003a2.121 2.121 0 0 1-1.587-1.587 6.06 6.06 0 0 1 0-2.771 2.123 2.123 0 0 1 1.587-1.587zM21.34 3.097a4.807 4.807 0 0 0-3.576 3.576 8.713 8.713 0 0 0 0 3.986 4.804 4.804 0 0 0 3.576 3.576 8.74 8.74 0 0 0 3.986 0 4.807 4.807 0 0 0 3.576-3.576 8.713 8.713 0 0 0 0-3.986 4.804 4.804 0 0 0-3.576-3.576 8.74 8.74 0 0 0-3.986 0zm.608 2.597a6.06 6.06 0 0 1 2.771 0 2.123 2.123 0 0 1 1.587 1.587v.003a6.03 6.03 0 0 1 0 2.764v.003a2.121 2.121 0 0 1-1.587 1.587 6.06 6.06 0 0 1-2.771 0 2.123 2.123 0 0 1-1.587-1.587v-.003a6.03 6.03 0 0 1 0-2.764v-.003a2.121 2.121 0 0 1 1.587-1.587zm-.608 12.07a4.804 4.804 0 0 0-3.576 3.576 8.713 8.713 0 0 0 0 3.986 4.804 4.804 0 0 0 3.576 3.576 8.713 8.713 0 0 0 3.986 0 4.804 4.804 0 0 0 3.576-3.576 8.713 8.713 0 0 0 0-3.986 4.804 4.804 0 0 0-3.576-3.576 8.713 8.713 0 0 0-3.986 0zm.608 2.597a6.06 6.06 0 0 1 2.771 0 2.121 2.121 0 0 1 1.587 1.587 6.06 6.06 0 0 1 0 2.771 2.121 2.121 0 0 1-1.587 1.587 6.06 6.06 0 0 1-2.771 0 2.121 2.121 0 0 1-1.587-1.587 6.06 6.06 0 0 1 0-2.771 2.121 2.121 0 0 1 1.587-1.587z"/>
    </symbol>
    <symbol id="icon-pencil" viewBox="0 0 32 32">
      <path d="M25.332 1.605a5.055 5.055 0 0 0-3.586 1.477L6.707 18.121c-.359.359-.58.574-.801.859a5.28 5.28 0 0 0-.48.742c-.171.318-.279.605-.461 1.078l-.102.266-2.742 7.133a1.3 1.3 0 0 0 1.689 1.677l-.009.003 7.398-2.844c.473-.182.76-.29 1.078-.461.26-.14.508-.302.742-.484v.004c.285-.221.501-.442.859-.801l15.039-15.039c1.969-1.97 1.969-5.202 0-7.172a5.055 5.055 0 0 0-3.586-1.477zm0 2.583c.63 0 1.262.242 1.75.73.976.976.976 2.52 0 3.496L12.039 23.453c-.053.053-.046.042-.09.086-.077-.07-.116-.209-.191-.285l-3.012-3.012c-.076-.076-.219-.114-.289-.191.045-.045.035-.039.09-.094L23.586 4.918a2.458 2.458 0 0 1 1.746-.73zM7.16 22.332l2.504 2.508-4.066 1.563z"/>
    </symbol>
    <symbol id="icon-trash" viewBox="0 0 32 32">
      <path d="M12 2.699h-.001a1.3 1.3 0 0 0-1.3 1.3v.002a1.3 1.3 0 0 0 1.3 1.3h8.002a1.3 1.3 0 0 0 1.3-1.3v-.002a1.3 1.3 0 0 0-1.3-1.3H20zm-8 4h-.001a1.3 1.3 0 0 0-1.3 1.3v.002a1.3 1.3 0 0 0 1.3 1.3h24.002a1.3 1.3 0 0 0 1.3-1.3v-.002a1.3 1.3 0 0 0-1.3-1.3H28z"/>
      <path d="M6.582 6.703A1.301 1.301 0 0 0 5.371 8.09v-.004l.801 12.02c.149 2.231.196 3.457.68 4.645a7.306 7.306 0 0 0 4.469 4.18c1.217.403 2.444.371 4.68.371s3.466.032 4.684-.371a7.3 7.3 0 0 0 4.465-4.18c.483-1.188.531-2.413.68-4.645l.801-12.02a1.301 1.301 0 0 0-1.203-1.383h-.004a1.3 1.3 0 0 0-1.387 1.207v.004l-.801 12.016c-.149 2.231-.246 3.235-.492 3.84a4.7 4.7 0 0 1-2.879 2.691c-.62.205-1.627.238-3.863.238s-3.244-.033-3.863-.238a4.699 4.699 0 0 1-2.875-2.691c-.246-.605-.347-1.609-.496-3.84L7.967 7.914A1.301 1.301 0 0 0 6.58 6.703h.004z"/>
    </symbol>
    <symbol id="icon-help-circle" viewBox="0 0 32 32">
      <path d="M15.013 1.258c-2.304.229-3.781.632-5.573 1.523-1.56.776-2.61 1.533-3.867 2.792C4.314 6.831 3.557 7.88 2.781 9.44 1.717 11.579 1.256 13.56 1.256 16c0 2.464.462 4.43 1.552 6.613a13.914 13.914 0 0 0 2.757 3.817l.003.003a13.834 13.834 0 0 0 3.739 2.724l.08.036c2.163 1.082 4.163 1.552 6.613 1.552 2.448 0 4.461-.474 6.613-1.552a13.938 13.938 0 0 0 3.817-2.758l.002-.003c2.374-2.373 3.803-5.312 4.242-8.725.091-.709.091-2.738.002-3.414-.251-1.866-.693-3.33-1.482-4.906a13.92 13.92 0 0 0-2.759-3.817l-.003-.003a13.834 13.834 0 0 0-3.739-2.724l-.08-.036c-2.078-1.04-4.003-1.51-6.346-1.552a20.462 20.462 0 0 0-1.254.002zm2.331 2.928a11.765 11.765 0 0 1 7.057 3.412l.001.001c2.156 2.147 3.491 5.119 3.491 8.402s-1.334 6.254-3.49 8.401c-2.147 2.156-5.119 3.491-8.402 3.491s-6.254-1.334-8.401-3.49c-2.158-2.147-3.494-5.119-3.494-8.402s1.336-6.256 3.493-8.402a11.81 11.81 0 0 1 8.396-3.488c.476 0 .945.028 1.406.082l-.056-.005zm-2.277 3.763c-1.427.219-2.858 1.115-3.65 2.285-.309.456-.635 1.162-.701 1.518-.214 1.165.998 2.051 2.069 1.509.342-.173.494-.358.757-.917.43-.92 1.23-1.499 2.15-1.557.778-.048 1.376.166 1.942.696.723.677 1.006 1.728.659 2.453-.267.56-1.144 1.248-2.227 1.749-1.056.486-1.149.544-1.333.816a1.99 1.99 0 0 0-.234.477c-.136.506.098 1.187.507 1.485.234.17.653.31.922.31.422 0 1.816-.624 2.688-1.205 1.394-.928 2.246-1.979 2.566-3.162.165-.608.163-1.726-.005-2.379a5.656 5.656 0 0 0-1.472-2.565 5.485 5.485 0 0 0-2.469-1.401l-.038-.008c-.544-.133-1.608-.186-2.133-.104zm.491 13.352c-1.024.381-1.32 1.622-.568 2.374.291.291.56.398 1.01.402.325.003.448-.022.658-.128.466-.229.781-.7.781-1.245l-.001-.039v.002l.001-.04c0-.54-.312-1.007-.765-1.231l-.008-.004c-.31-.155-.824-.198-1.107-.091z"/>
    </symbol>
    <symbol id="icon-login" viewBox="0 0 32 32">
      <path d="M20.146 2.57c-2.791 0-4.946.502-6.482 1.748s-2.328 3.179-2.545 5.697a.75.75 0 0 0 .68.81h.003a.75.75 0 0 0 .81-.678v-.003c.196-2.282.845-3.729 1.996-4.662s2.928-1.412 5.537-1.412h.174c2.88 0 4.732.573 5.877 1.719s1.719 2.997 1.719 5.877v8.693c0 2.88-.573 4.734-1.719 5.879s-2.997 1.719-5.877 1.719h-.174c-2.59 0-4.36-.473-5.51-1.393s-1.801-2.34-2.01-4.58a.752.752 0 0 0-.82-.678h.003a.752.752 0 0 0-.678.82v-.003c.231 2.48 1.033 4.386 2.566 5.613s3.677 1.721 6.447 1.721h.174c3.08 0 5.399-.62 6.938-2.158s2.158-3.859 2.158-6.939v-8.693c0-3.08-.62-5.399-2.158-6.938s-3.857-2.158-6.938-2.158z"/>
      <path d="M2.666 15.25a.75.75 0 0 0 0 1.5H19.84a.75.75 0 0 0 0-1.5H9.317z"/>
      <path d="M16.867 10.783h-.002a.75.75 0 0 0-.529 1.281l.508.506 3.43 3.43-3.938 3.936a.747.747 0 0 0 0 1.06.747.747 0 0 0 1.06 0l4.467-4.467a.747.747 0 0 0 0-1.06l-4.467-4.467a.75.75 0 0 0-.529-.219z"/>
    </symbol>
    <symbol id="icon-filter" viewBox="0 0 32 32">
      <path d="M2.668 2.5a1.5 1.5 0 0 0-1.143 2.471l-.002-.002 10.309 12.195v8.169a1.5 1.5 0 0 0 .823 1.339l.009.004 5.332 2.664A1.5 1.5 0 0 0 20.168 28V17.164L30.481 4.969A1.5 1.5 0 0 0 29.336 2.5h-.003zm3.234 3h20.199l-8.578 10.145a1.488 1.488 0 0 0-.355.969v8.961l-2.336-1.168V16.61c0-.369-.133-.706-.353-.967l.002.002z"/>
    </symbol>
    <symbol id="icon-plus" viewBox="0 0 32 32">
      <path d="M16 5.228h-.001a1.44 1.44 0 0 0-1.44 1.437v18.67c0 .795.645 1.44 1.44 1.44h.002a1.44 1.44 0 0 0 1.44-1.44V6.665a1.44 1.44 0 0 0-1.44-1.438H16z"/>
      <path d="M6.666 14.559h-.001a1.44 1.44 0 0 0-1.44 1.44v.002c0 .795.645 1.44 1.44 1.44h18.67a1.44 1.44 0 0 0 1.438-1.44v-.002a1.44 1.44 0 0 0-1.437-1.44z"/>
    </symbol>
    <symbol id="icon-pencil" viewBox="0 0 32 32">
      <path d="M25.332 1.605a5.055 5.055 0 0 0-3.586 1.477L6.707 18.121c-.359.359-.58.574-.801.859a5.28 5.28 0 0 0-.48.742c-.171.318-.279.605-.461 1.078l-.102.266-2.742 7.133a1.3 1.3 0 0 0 1.689 1.677l-.009.003 7.398-2.844c.473-.182.76-.29 1.078-.461.26-.14.508-.302.742-.484v.004c.285-.221.501-.442.859-.801l15.039-15.039c1.969-1.97 1.969-5.202 0-7.172a5.055 5.055 0 0 0-3.586-1.477zm0 2.583c.63 0 1.262.242 1.75.73.976.976.976 2.52 0 3.496L12.039 23.453c-.053.053-.046.042-.09.086-.077-.07-.116-.209-.191-.285l-3.012-3.012c-.076-.076-.219-.114-.289-.191.045-.045.035-.039.09-.094L23.586 4.918a2.458 2.458 0 0 1 1.746-.73zM7.16 22.332l2.504 2.508-4.066 1.563z"/>
    </symbol>
    <symbol id="icon-arrow-circle" viewBox="0 0 32 32">
      <path d="M16 1.367c-5.406 0-10.145 2.942-12.676 7.316a1.298 1.298 0 0 0 .47 1.77l.006.003a1.3 1.3 0 0 0 1.771-.467l.003-.006A12.02 12.02 0 0 1 16 3.967c6.661 0 12.031 5.37 12.031 12.031S22.661 28.033 16 28.033c-4.464 0-8.345-2.423-10.426-6.02a1.303 1.303 0 0 0-1.78-.47l.006-.003a1.301 1.301 0 0 0-.473 1.78l-.003-.006A14.64 14.64 0 0 0 16 30.63c8.066 0 14.633-6.566 14.633-14.633S24.067 1.364 16 1.364z"/>
      <path d="M15.082 9.746a1.299 1.299 0 0 0 0 1.84L19.496 16l-4.414 4.414a1.299 1.299 0 0 0 0 1.84 1.295 1.295 0 0 0 1.836 0l5.336-5.336a1.298 1.298 0 0 0 0-1.836l-5.336-5.336a1.295 1.295 0 0 0-1.836 0z"/>
      <path d="M2.668 14.699h-.001a1.3 1.3 0 0 0-1.3 1.3v.002a1.3 1.3 0 0 0 1.3 1.3h18.666a1.3 1.3 0 0 0 1.3-1.3v-.002a1.3 1.3 0 0 0-1.3-1.3h-.001z"/>
    </symbol>
    <symbol id="icon-x-close" viewBox="0 0 32 32">
      <path d="m23.056 7.056-2.483 2.486L7.056 23.056c-.242.241-.392.575-.392.944s.15.703.392.944c.241.242.575.392.944.392s.703-.15.944-.392l16-16c.242-.241.392-.575.392-.944s-.15-.703-.392-.944c-.241-.242-.575-.392-.944-.392s-.703.15-.944.392z"/>
      <path d="M8 6.667h-.003A1.33 1.33 0 0 0 6.664 8c0 .369.15.703.392.944l16 16c.241.242.575.392.944.392s.703-.15.944-.392c.242-.241.392-.575.392-.944s-.15-.703-.392-.944l-16-16a1.33 1.33 0 0 0-.941-.389H8z"/>
    </symbol>
    <symbol id="icon-star" viewBox="0 0 32 32">
      <path d="M16 1.333a1.335 1.335 0 0 0-1.24.845l-.003.009-2.684 6.976c-.376.978-.538 1.359-.698 1.583a2.674 2.674 0 0 1-.628.628c-.224.16-.606.322-1.583.698l-6.976 2.684a1.335 1.335 0 0 0-.009 2.483l.009.003 6.976 2.684c.978.376 1.359.538 1.583.698.243.173.456.386.628.628.16.224.322.606.698 1.583l2.684 6.976a1.335 1.335 0 0 0 2.483.009l.003-.009 2.684-6.976c.376-.978.538-1.359.698-1.583.173-.243.386-.456.628-.628.224-.16.606-.322 1.583-.698l6.976-2.684a1.335 1.335 0 0 0 .009-2.483l-.009-.003-6.976-2.684c-.978-.376-1.359-.538-1.583-.698a2.674 2.674 0 0 1-.628-.628c-.16-.224-.322-.606-.698-1.583l-2.684-6.976A1.335 1.335 0 0 0 16 1.333zm0 5.049 1.438 3.74c.376.978.588 1.572 1.014 2.17.345.486.771.911 1.257 1.257.598.425 1.193.638 2.17 1.014l3.74 1.438-3.74 1.438c-.977.376-1.572.588-2.17 1.014a5.357 5.357 0 0 0-1.257 1.257c-.425.598-.638 1.193-1.014 2.17L16 25.62l-1.438-3.74c-.376-.978-.589-1.572-1.014-2.17a5.339 5.339 0 0 0-1.257-1.257c-.598-.425-1.193-.638-2.17-1.014l-3.74-1.438 3.74-1.438c.978-.376 1.572-.589 2.17-1.014a5.339 5.339 0 0 0 1.257-1.257c.425-.598.638-1.193 1.014-2.17z"/>
    </symbol>
    <symbol id="icon-loading" viewBox="0 0 32 32">
      <path d="M16 1.34c-2.194 0-4.322.639-6.337 1.615-.33.133-.681.161-.997.344-.05.112-.085.243-.1.379l-.001.006c-1.005.603-2.072 1.079-2.938 1.944C1.099 10.156.308 16.871 2.953 22.336c.133.329.162.681.344.997.157.224.377.395.633.49l.009.003c.553.857.938 1.795 1.687 2.545 4.528 4.528 11.243 5.319 16.708 2.674.331-.133.683-.161 1-.344.259-.16.456-.398.56-.682l.003-.009c.83-.543 1.744-.91 2.472-1.639 4.528-4.528 5.319-11.243 2.674-16.708-.133-.33-.161-.681-.344-.997a1.344 1.344 0 0 0-.633-.49l-.009-.003c-.553-.857-.938-1.795-1.688-2.545A14.624 14.624 0 0 0 15.997 1.34zm1.531 2.952c2.53.331 5.005 1.272 6.955 3.222.881.881 1.432 1.934 1.983 2.979.988 2.207.438 4.804-1.611 6.191h-.004a5.027 5.027 0 0 1-5.781-.097l-1.208-.878.882-1.212a7.714 7.714 0 0 0 .15-8.844l-.008-.003-.021-.021c-.368-.539-.866-.922-1.337-1.337zm-3.885.764a5.016 5.016 0 0 1 3.038 2.087l.003.003a5.027 5.027 0 0 1-.101 5.781l-.878 1.212-1.212-.882a7.716 7.716 0 0 0-8.844-.153 1.349 1.349 0 0 0-.198.166l.194-.16c-.55.373-.936.881-1.358 1.361.33-2.532 1.271-5.007 3.222-6.958.88-.88 1.934-1.429 2.979-1.979 1.024-.458 2.117-.718 3.153-.479zm-3.594 9.395a5.03 5.03 0 0 1 2.875.965v-.003l1.212.882-.878 1.208a7.716 7.716 0 0 0-.153 8.844l.004.004c.373.55.882.936 1.361 1.358-2.532-.33-5.007-1.271-6.958-3.222-.88-.88-1.432-1.935-1.983-2.979-.987-2.21-.433-4.804 1.615-6.191a5.03 5.03 0 0 1 2.906-.865zm17.656 3.08c-.331 2.53-1.272 5.005-3.222 6.955-.881.881-1.937 1.432-2.983 1.983-2.209.983-4.798.431-6.184-1.615a5.033 5.033 0 0 1 .097-5.785l.878-1.205 1.208.878a7.714 7.714 0 0 0 8.844.153c.074-.05.139-.104.198-.163v-.004l-.194.16c.55-.372.936-.879 1.358-1.358z"/>
    </symbol>
    <symbol id="icon-puzzle-piece" viewBox="0 0 32 32">
      <path d="m15.056 1.722-4.799 4.802a1.334 1.334 0 0 0 .46 2.185l.009.003c1.834.699 2.428 1.547 2.594 2.198s-.076 1.326-.58 1.83-1.179.745-1.83.58-1.499-.76-2.198-2.594a1.336 1.336 0 0 0-2.188-.469l-4.802 4.799c-.242.241-.392.575-.392.944s.15.703.392.944l3.618 3.615c-1.292.851-2.277 1.849-2.576 3.028-.422 1.662.198 3.292 1.278 4.372s2.71 1.7 4.372 1.278c1.179-.3 2.177-1.285 3.028-2.576l3.615 3.618c.241.242.575.392.944.392s.703-.15.944-.392l4.799-4.802a1.334 1.334 0 0 0-.46-2.185l-.009-.003c-1.834-.699-2.428-1.547-2.594-2.198s.076-1.326.58-1.83 1.179-.745 1.83-.58 1.499.76 2.198 2.594a1.336 1.336 0 0 0 2.188.469l4.802-4.799c.242-.241.392-.575.392-.944s-.15-.703-.392-.944l-3.618-3.615c1.291-.851 2.277-1.849 2.576-3.028.422-1.662-.198-3.292-1.278-4.372s-2.71-1.7-4.372-1.278c-1.179.3-2.177 1.285-3.028 2.576l-3.615-3.618c-.241-.242-.575-.392-.944-.392s-.703.15-.944.392zM16 4.556l3.858 3.854a1.334 1.334 0 0 0 2.185-.46l.003-.009c.699-1.834 1.547-2.428 2.198-2.594s1.326.076 1.83.58.745 1.179.58 1.83-.76 1.499-2.594 2.198a1.336 1.336 0 0 0-.469 2.188l3.854 3.858-2.67 2.674c-.851-1.291-1.849-2.277-3.028-2.576-1.662-.422-3.292.198-4.372 1.278s-1.7 2.71-1.278 4.372c.3 1.179 1.285 2.177 2.576 3.028l-2.674 2.67-3.858-3.854a1.334 1.334 0 0 0-2.185.46l-.003.009c-.699 1.834-1.547 2.428-2.198 2.594s-1.326-.076-1.83-.58-.745-1.179-.58-1.83.76-1.499 2.594-2.198a1.336 1.336 0 0 0 .469-2.188l-3.854-3.858 2.67-2.674c.851 1.292 1.849 2.277 3.028 2.576 1.662.422 3.292-.198 4.372-1.278s1.7-2.71 1.278-4.372c-.3-1.179-1.285-2.177-2.576-3.028z"/>
    </symbol>
    <symbol id="icon-container" viewBox="0 0 32 32">
      <path d="M15.462 1.58c-.476.098-.768.286-1.146.497L4.451 7.56c-.399.222-.733.374-1.08.75-.257.279-.45.612-.569.972-.16.486-.135.849-.135 1.306v10.823c0 .457-.025.823.135 1.309.119.36.312.689.569.969v.004c.347.376.681.528 1.08.75l9.865 5.483c.378.21.67.398 1.146.497a2.67 2.67 0 0 0 1.076 0c.476-.098.768-.287 1.146-.497l9.865-5.483h.004c.399-.222.73-.374 1.076-.75.258-.28.451-.612.569-.972.161-.486.135-.852.135-1.309V10.589c0-.457.025-.82-.135-1.306a2.673 2.673 0 0 0-.569-.972c-.346-.376-.677-.528-1.076-.75h-.004l-9.864-5.483c-.378-.21-.67-.399-1.146-.497a2.67 2.67 0 0 0-1.076 0zM16 4.191c-.076-.016.011.005.389.215l8.868 4.927L16 14.475 6.747 9.333l8.865-4.927c.378-.21.465-.231.389-.215zM5.333 11.597l9.333 5.188V27.07l-8.92-4.958c-.399-.222-.469-.29-.413-.229.026.078 0-.015 0-.472zm21.334 0v9.813c0 .457-.026.551 0 .472.056-.06-.014.007-.413.229l-8.92 4.958V16.784z"/>
    </symbol>
    <symbol id="icon-lightning" viewBox="0 0 32 32">
      <path d="M11.326 1.333c-.239 0-.5-.03-.899.108-.28.097-.538.254-.75.462v.004c-.302.295-.393.539-.5.753L3.58 13.861c-.256.511-.611.87-.479 1.764a2 2 0 0 0 .83 1.347c.74.518 1.224.361 1.795.361h6.483L8.723 28.951a1.333 1.333 0 0 0 2.235 1.309l16.257-16.861c.274-.284.493-.506.698-.76s.475-.588.514-1.174a2.004 2.004 0 0 0-.705-1.66c-.448-.379-.876-.419-1.201-.448s-.636-.024-1.031-.024h-7.566l2.323-6.198a1.333 1.333 0 0 0-1.246-1.802zM11.49 4h5.583l-2.323 6.198A1.333 1.333 0 0 0 15.998 12h8.866L12.857 24.444l2.42-8.063A1.333 1.333 0 0 0 14 14.666H6.156z"/>
    </symbol>
    <symbol id="icon-colors" viewBox="0 0 32 32">
      <path d="M16 1.333c-5.139 0-9.333 4.194-9.333 9.333 0 .768.264 1.452.441 2.167-3.362 1.415-5.774 4.639-5.774 8.5 0 5.139 4.194 9.333 9.333 9.333 2.004 0 3.764-.774 5.288-1.858 1.534 1.105 3.35 1.858 5.378 1.858 5.139 0 9.333-4.194 9.333-9.333 0-3.861-2.413-7.085-5.774-8.5.177-.715.441-1.399.441-2.167 0-5.139-4.194-9.333-9.333-9.333zM16 4c3.698 0 6.667 2.969 6.667 6.667S19.698 17.334 16 17.334s-6.667-2.969-6.667-6.667S12.302 4 16 4zM8.153 15.403C9.793 18.098 12.627 20 16 20c.369 0 .683-.17 1.042-.212.124.507.292.997.292 1.545 0 3.698-2.969 6.667-6.667 6.667S4 25.031 4 21.333c0-2.755 1.787-4.91 4.153-5.931zm15.694 0C26.213 16.423 28 18.578 28 21.334a6.647 6.647 0 0 1-6.667 6.667c-1.275 0-2.398-.443-3.406-1.059C19.15 25.363 20 23.477 20 21.334c0-.727-.234-1.384-.392-2.066 1.821-.769 3.221-2.191 4.24-3.865z"/>
    </symbol>
    <symbol id="icon-hexagon" viewBox="0 0 32 32">
      <path d="M15.462 1.58c-.476.098-.768.286-1.146.497L4.451 7.56c-.399.222-.733.374-1.08.75-.257.279-.45.612-.569.972-.16.486-.135.849-.135 1.306v10.823c0 .457-.025.823.135 1.309.119.36.312.689.569.969v.004c.347.376.681.528 1.08.75l9.865 5.483c.378.21.67.398 1.146.497a2.67 2.67 0 0 0 1.076 0c.476-.098.768-.287 1.146-.497l9.865-5.483h.004c.399-.222.73-.374 1.076-.75.258-.28.451-.612.569-.972.161-.486.135-.852.135-1.309V10.589c0-.457.025-.82-.135-1.306a2.673 2.673 0 0 0-.569-.972c-.346-.376-.677-.528-1.076-.75h-.004l-9.864-5.483c-.378-.21-.67-.399-1.146-.497a2.67 2.67 0 0 0-1.076 0zM16 4.191c-.076-.016.011.005.389.215l9.868 5.483c.392.218.465.289.41.229-.026-.078 0 .012 0 .469V21.41c0 .457-.026.551 0 .472.056-.06-.014.007-.413.229l-9.865 5.479c-.378.21-.464.234-.389.219.076.016-.011-.009-.389-.219v.004l-9.865-5.483c-.399-.222-.469-.29-.413-.229.026.078 0-.015 0-.472V10.587c0-.457.026-.547 0-.469-.056.061.014-.007.413-.229l9.865-5.483c.378-.21.465-.231.389-.215z"/>
    </symbol>
    <symbol id="icon-eye" viewBox="0 0 32 32">
      <path d="M16 4.177C5.786 4.177.299 15.483.299 15.483a1.154 1.154 0 0 0 .003 1.041l-.003-.007S5.787 27.823 16 27.823s15.701-11.306 15.701-11.306a1.154 1.154 0 0 0-.003-1.041l.003.007S26.213 4.177 16 4.177zm0 2.313c8.017 0 12.755 8.581 13.257 9.51-.502.93-5.24 9.51-13.257 9.51S3.245 16.929 2.743 16c.502-.93 5.24-9.51 13.257-9.51z"/>
      <path d="M16 10.844c-2.834 0-5.156 2.323-5.156 5.156s2.323 5.156 5.156 5.156c2.834 0 5.156-2.323 5.156-5.156S18.833 10.844 16 10.844zm0 2.312c1.585 0 2.844 1.259 2.844 2.844S17.585 18.844 16 18.844 13.156 17.585 13.156 16s1.259-2.844 2.844-2.844z"/>
    </symbol>
    <symbol id="icon-user-avatar" viewBox="0 0 32 32">
      <path fill="#1f1f1f" d="M3.765 0h24.471a3.765 3.765 0 0 1 3.765 3.765v24.471a3.765 3.765 0 0 1-3.765 3.765H3.765A3.765 3.765 0 0 1 0 28.236V3.765A3.765 3.765 0 0 1 3.765 0z" style="fill:var(--color1, #1f1f1f)"/>
      <path fill="#151515" d="M21.49 14.745a5.333 5.333 0 1 1-10.666 0 5.333 5.333 0 0 1 10.666 0z" style="fill:var(--color2, #151515)"/>
      <path fill="#151515" d="M29.06 32.853c0-1.723-.339-3.429-.999-5.02s-1.626-3.038-2.844-4.256a13.128 13.128 0 0 0-9.276-3.843c-1.723 0-3.429.339-5.02.999s-3.038 1.626-4.256 2.844a13.128 13.128 0 0 0-3.843 9.276h26.237z" style="fill:var(--color2, #151515)"/>
    </symbol>
    <symbol id="icon-eye-blocked" viewBox="0 0 32 32">
<path d="M29.561 0.439c-0.586-0.586-1.535-0.586-2.121 0l-6.318 6.318c-1.623-0.492-3.342-0.757-5.122-0.757-6.979 0-13.028 4.064-16 10 1.285 2.566 3.145 4.782 5.407 6.472l-4.968 4.968c-0.586 0.586-0.586 1.535 0 2.121 0.293 0.293 0.677 0.439 1.061 0.439s0.768-0.146 1.061-0.439l27-27c0.586-0.586 0.586-1.536 0-2.121zM13 10c1.32 0 2.44 0.853 2.841 2.037l-3.804 3.804c-1.184-0.401-2.037-1.521-2.037-2.841 0-1.657 1.343-3 3-3zM3.441 16c1.197-1.891 2.79-3.498 4.67-4.697 0.122-0.078 0.246-0.154 0.371-0.228-0.311 0.854-0.482 1.776-0.482 2.737 0 1.715 0.54 3.304 1.459 4.607l-1.904 1.904c-1.639-1.151-3.038-2.621-4.114-4.323z"></path>
<path d="M24 13.813c0-0.849-0.133-1.667-0.378-2.434l-10.056 10.056c0.768 0.245 1.586 0.378 2.435 0.378 4.418 0 8-3.582 8-8z"></path>
<path d="M25.938 9.062l-2.168 2.168c0.040 0.025 0.079 0.049 0.118 0.074 1.88 1.199 3.473 2.805 4.67 4.697-1.197 1.891-2.79 3.498-4.67 4.697-2.362 1.507-5.090 2.303-7.889 2.303-1.208 0-2.403-0.149-3.561-0.439l-2.403 2.403c1.866 0.671 3.873 1.036 5.964 1.036 6.978 0 13.027-4.064 16-10-1.407-2.81-3.504-5.2-6.062-6.938z"></path>
</symbol>
    
  </defs>
</svg>
