<svg aria-hidden="true" style="position: absolute; width: 0; height: 0; overflow: hidden;" version="1.1" xmlns="http://www.w3.org/2000/svg" xmlns:xlink="http://www.w3.org/1999/xlink">
<defs>

<symbol id="icon-add" viewBox="0 0 32 32">
<path d="M15.74 7.039c-0.351 0.094-0.62 0.37-0.701 0.719l-0.001 0.007c-0.027 0.115-0.049 1.787-0.049 3.715l-0.001 3.504-3.64 0.016c-3.967 0.016-3.789 0.003-4.073 0.316-0.189 0.209-0.251 0.377-0.251 0.685 0 0.316 0.093 0.545 0.292 0.727 0.297 0.269 0.153 0.259 4.031 0.275l3.637 0.016 0.016 3.637c0.016 3.877 0.005 3.733 0.275 4.031 0.181 0.2 0.411 0.292 0.727 0.292s0.545-0.092 0.727-0.292c0.269-0.297 0.259-0.153 0.275-4.031l0.016-3.637 3.637-0.016c3.877-0.016 3.733-0.005 4.031-0.275 0.2-0.181 0.292-0.411 0.292-0.727s-0.092-0.545-0.292-0.727c-0.297-0.269-0.153-0.259-4.031-0.275l-3.637-0.016-0.016-3.637c-0.016-3.877-0.005-3.733-0.275-4.031-0.223-0.247-0.635-0.361-0.987-0.276z"></path>
</symbol>

<symbol id="icon-arrow-down" viewBox="0 0 32 32">
<path d="M5.067 11.019c-0.403 0.175-0.604 0.484-0.604 0.932 0 0.247 0.028 0.339 0.164 0.533 0.227 0.324 8.995 9.063 9.293 9.261 0.695 0.464 1.221 0.621 2.080 0.621s1.384-0.157 2.080-0.621c0.341-0.228 9.152-9.031 9.317-9.309 0.161-0.272 0.187-0.692 0.056-0.944-0.168-0.326-0.503-0.546-0.888-0.546-0.132 0-0.258 0.026-0.373 0.072l0.007-0.002c-0.14 0.057-1.545 1.425-4.705 4.581-3.096 3.091-4.581 4.537-4.747 4.624-0.203 0.105-0.319 0.125-0.747 0.125s-0.544-0.020-0.747-0.125c-0.165-0.087-1.651-1.533-4.747-4.624-3.16-3.156-4.565-4.524-4.705-4.581-0.107-0.048-0.232-0.077-0.364-0.077-0.134 0-0.261 0.029-0.376 0.082l0.006-0.002z"></path>
</symbol>

<symbol id="icon-logo" viewBox="0 0 32 32">
<path fill="#1f1f1f" style="fill: var(--color1, #1f1f1f)" d="M24 0h-16c-4.418 0-8 3.582-8 8v16c0 4.418 3.582 8 8 8h16c4.418 0 8-3.582 8-8v-16c0-4.418-3.582-8-8-8z"></path>
<path fill="#fff" style="fill: var(--color2, #fff)" d="M13.331 23.027c0.245-1.272 0.453-2.61 0.747-3.949 0.145-0.701-0.032-0.999-0.815-0.946s-1.657 0.027-2.49 0c-0.833-0.027-0.982-0.446-0.502-1.044 2.363-2.918 4.753-5.8 7.134-8.674 0.267-0.326 0.575-0.558 1.014-0.312s0.349 0.549 0.276 0.915c-0.263 1.339-0.48 2.677-0.77 3.989-0.149 0.678 0.045 0.919 0.751 0.892 0.709-0.036 1.419-0.036 2.127 0 0.403 0 0.933-0.21 1.141 0.339s-0.231 0.781-0.453 1.107c-0.905 1.115-1.823 2.229-2.752 3.342-1.361 1.624-2.711 3.242-4.051 4.854-0.263 0.317-0.557 0.571-1.005 0.41s-0.353-0.54-0.353-0.924z"></path>
</symbol>

<symbol id="icon-burger" viewBox="0 0 32 32">
<path d="M3.32 6.91c-0.382 0.191-0.547 0.518-0.547 1.090s0.165 0.899 0.547 1.090l0.274 0.137h24.812l0.274-0.137c0.382-0.191 0.547-0.518 0.547-1.090s-0.165-0.899-0.547-1.090l-0.274-0.137h-24.812l-0.274 0.137zM3.32 14.91c-0.382 0.191-0.547 0.518-0.547 1.090s0.165 0.899 0.547 1.090l0.274 0.137h24.812l0.274-0.137c0.382-0.191 0.547-0.518 0.547-1.090s-0.165-0.899-0.547-1.090l-0.274-0.137h-24.812l-0.274 0.137zM3.32 22.91c-0.382 0.191-0.547 0.518-0.547 1.090s0.165 0.899 0.547 1.090l0.274 0.137h24.812l0.274-0.137c0.382-0.191 0.547-0.518 0.547-1.090s-0.165-0.899-0.547-1.090l-0.274-0.137h-24.812l-0.274 0.137z"></path>
</symbol>

<symbol id="icon-user" viewBox="0 0 32 32">
<path fill="#f6f6f7" style="fill: var(--color1, #f6f6f7)" d="M3.765 0h24.471c2.079 0 3.765 1.686 3.765 3.765v24.471c0 2.079-1.686 3.765-3.765 3.765h-24.471c-2.079 0-3.765-1.686-3.765-3.765v-24.471c0-2.079 1.686-3.765 3.765-3.765z"></path>
<path fill="#fff" style="fill: var(--color2, #fff)" d="M21.49 14.745c0 2.946-2.388 5.333-5.333 5.333s-5.333-2.388-5.333-5.333c0-2.946 2.388-5.333 5.333-5.333s5.333 2.388 5.333 5.333z"></path>
<path fill="#fff" style="fill: var(--color2, #fff)" d="M29.060 32.853c0-1.723-0.339-3.429-0.999-5.020s-1.626-3.038-2.844-4.256c-1.218-1.218-2.664-2.184-4.256-2.844s-3.297-0.999-5.020-0.999c-1.723 0-3.429 0.339-5.020 0.999s-3.038 1.626-4.256 2.844c-1.218 1.218-2.184 2.664-2.844 4.256s-0.999 3.297-0.999 5.020h26.237z"></path>
</symbol>

<symbol id="icon-scroll-down" viewBox="0 0 32 32">
<path d="M16.946 17.867c-0.124 0.125-0.271 0.224-0.434 0.292s-0.337 0.103-0.513 0.103c-0.176 0-0.35-0.035-0.513-0.103s-0.31-0.167-0.434-0.292l-6.107-6.12c-0.124-0.125-0.271-0.224-0.434-0.292s-0.337-0.103-0.513-0.103c-0.176 0-0.35 0.035-0.513 0.103s-0.31 0.167-0.434 0.292c-0.248 0.25-0.388 0.588-0.388 0.94s0.139 0.69 0.388 0.94l6.12 6.12c0.75 0.749 1.767 1.17 2.827 1.17s2.077-0.421 2.827-1.17l6.12-6.12c0.246-0.248 0.385-0.584 0.387-0.933 0.001-0.175-0.033-0.349-0.099-0.512s-0.164-0.31-0.288-0.435c-0.124-0.125-0.272-0.224-0.434-0.292s-0.337-0.103-0.513-0.103c-0.176 0-0.35 0.035-0.513 0.103s-0.31 0.167-0.434 0.292l-6.107 6.12z"></path>
</symbol>

<symbol id="icon-four-circles" viewBox="0 0 32 32">
<path d="M6.674 3.097c-1.772 0.416-3.161 1.805-3.576 3.576-0.307 1.311-0.307 2.675 0 3.986 0.416 1.772 1.805 3.161 3.576 3.576 1.311 0.307 2.675 0.307 3.986 0 1.772-0.416 3.161-1.805 3.576-3.576 0.307-1.311 0.307-2.675 0-3.986-0.416-1.772-1.805-3.161-3.576-3.576-1.311-0.307-2.675-0.307-3.986 0zM7.281 5.694c0.91-0.213 1.861-0.213 2.771 0 0.791 0.186 1.401 0.796 1.587 1.587 0.213 0.91 0.213 1.861 0 2.771-0.186 0.791-0.796 1.401-1.587 1.587-0.91 0.213-1.861 0.213-2.771 0-0.791-0.186-1.401-0.796-1.587-1.587-0.213-0.91-0.213-1.861 0-2.771 0.186-0.791 0.796-1.401 1.587-1.587z"></path>
<path d="M6.674 17.764c-1.772 0.415-3.161 1.805-3.576 3.576-0.307 1.311-0.307 2.675 0 3.986 0.416 1.771 1.805 3.161 3.576 3.576 1.311 0.308 2.675 0.308 3.986 0 1.772-0.415 3.161-1.805 3.576-3.576 0.307-1.311 0.307-2.675 0-3.986-0.416-1.771-1.805-3.161-3.576-3.576-1.311-0.308-2.675-0.308-3.986 0zM7.281 20.361h0.003c0.91-0.214 1.854-0.214 2.764 0h0.003c0.791 0.185 1.401 0.796 1.587 1.587 0.214 0.91 0.214 1.86 0 2.771-0.186 0.791-0.796 1.401-1.587 1.587h-0.003c-0.91 0.214-1.854 0.214-2.764 0h-0.003c-0.791-0.185-1.401-0.796-1.587-1.587-0.214-0.91-0.214-1.86 0-2.771 0.186-0.791 0.796-1.401 1.587-1.587z"></path>
<path d="M21.34 3.097c-1.771 0.416-3.161 1.805-3.576 3.576-0.308 1.311-0.308 2.675 0 3.986 0.415 1.772 1.805 3.161 3.576 3.576 1.311 0.307 2.675 0.307 3.986 0 1.771-0.416 3.161-1.805 3.576-3.576 0.308-1.311 0.308-2.675 0-3.986-0.415-1.772-1.805-3.161-3.576-3.576-1.311-0.307-2.675-0.307-3.986 0zM21.948 5.694c0.91-0.214 1.86-0.214 2.771 0 0.791 0.186 1.401 0.796 1.587 1.587v0.003c0.214 0.91 0.214 1.854 0 2.764v0.003c-0.185 0.791-0.796 1.401-1.587 1.587-0.91 0.214-1.86 0.214-2.771 0-0.791-0.186-1.401-0.796-1.587-1.587v-0.003c-0.214-0.91-0.214-1.854 0-2.764v-0.003c0.185-0.791 0.796-1.401 1.587-1.587z"></path>
<path d="M21.34 17.764c-1.772 0.415-3.161 1.805-3.576 3.576-0.308 1.311-0.308 2.675 0 3.986 0.415 1.772 1.805 3.161 3.576 3.576 1.311 0.308 2.675 0.308 3.986 0 1.772-0.415 3.161-1.805 3.576-3.576 0.308-1.311 0.308-2.675 0-3.986-0.415-1.772-1.805-3.161-3.576-3.576-1.311-0.308-2.675-0.308-3.986 0zM21.948 20.361c0.91-0.214 1.861-0.214 2.771 0 0.791 0.185 1.401 0.796 1.587 1.587 0.214 0.91 0.214 1.861 0 2.771-0.185 0.791-0.796 1.401-1.587 1.587-0.91 0.214-1.861 0.214-2.771 0-0.791-0.185-1.401-0.796-1.587-1.587-0.214-0.91-0.214-1.861 0-2.771 0.185-0.791 0.796-1.401 1.587-1.587z"></path>
</symbol>

<symbol id="icon-pencil" viewBox="0 0 32 32">
<path d="M25.332 1.605c-1.301 0-2.601 0.492-3.586 1.477l-15.039 15.039c-0.359 0.359-0.58 0.574-0.801 0.859-0.181 0.234-0.341 0.482-0.48 0.742-0.171 0.318-0.279 0.605-0.461 1.078l-0.102 0.266-2.742 7.133c-0.055 0.138-0.086 0.298-0.086 0.466 0 0.718 0.582 1.3 1.3 1.3 0.168 0 0.328-0.032 0.475-0.089l-0.009 0.003 7.398-2.844c0.473-0.182 0.76-0.29 1.078-0.461 0.26-0.14 0.508-0.302 0.742-0.484v0.004c0.285-0.221 0.501-0.442 0.859-0.801l15.039-15.039c1.969-1.97 1.969-5.202 0-7.172-0.985-0.985-2.285-1.477-3.586-1.477zM25.332 4.188c0.63 0 1.262 0.242 1.75 0.73 0.976 0.976 0.976 2.52 0 3.496l-15.043 15.039c-0.053 0.053-0.046 0.042-0.090 0.086-0.077-0.070-0.116-0.209-0.191-0.285l-3.012-3.012c-0.076-0.076-0.219-0.114-0.289-0.191 0.045-0.045 0.035-0.039 0.090-0.094l15.039-15.039c0.488-0.488 1.116-0.73 1.746-0.73zM7.16 22.332l2.504 2.508-4.066 1.563z"></path>
</symbol>

<symbol id="icon-trash" viewBox="0 0 32 32">
<path d="M12 2.699c-0 0-0.001 0-0.001 0-0.718 0-1.3 0.582-1.3 1.3 0 0 0 0.001 0 0.001v-0c0 0 0 0 0 0.001 0 0.718 0.582 1.3 1.3 1.3 0 0 0.001 0 0.001 0h8c0 0 0 0 0.001 0 0.718 0 1.3-0.582 1.3-1.3 0-0 0-0.001 0-0.001v0c0-0 0-0.001 0-0.001 0-0.718-0.582-1.3-1.3-1.3-0 0-0.001 0-0.001 0h0z"></path>
<path d="M4 6.699c-0 0-0.001 0-0.001 0-0.718 0-1.3 0.582-1.3 1.3 0 0 0 0.001 0 0.001v-0c0 0 0 0 0 0.001 0 0.718 0.582 1.3 1.3 1.3 0 0 0.001 0 0.001 0h24c0 0 0 0 0.001 0 0.718 0 1.3-0.582 1.3-1.3 0-0 0-0.001 0-0.001v0c0-0 0-0 0-0.001 0-0.718-0.582-1.3-1.3-1.3-0 0-0.001 0-0.001 0h0z"></path>
<path d="M6.582 6.703c-0.68 0.047-1.214 0.609-1.214 1.297 0 0.030 0.001 0.060 0.003 0.090l-0-0.004 0.801 12.020c0.149 2.231 0.196 3.457 0.68 4.645 0.805 1.979 2.44 3.508 4.469 4.18 1.217 0.403 2.444 0.371 4.68 0.371s3.466 0.032 4.684-0.371c2.028-0.672 3.66-2.2 4.465-4.18 0.483-1.188 0.531-2.413 0.68-4.645l0.801-12.020c0.002-0.026 0.003-0.056 0.003-0.086 0-0.686-0.532-1.248-1.206-1.297l-0.004-0c-0.027-0.002-0.058-0.003-0.090-0.003-0.688 0-1.251 0.534-1.297 1.21l-0 0.004-0.801 12.016c-0.149 2.231-0.246 3.235-0.492 3.84-0.519 1.276-1.572 2.259-2.879 2.691-0.62 0.205-1.627 0.238-3.863 0.238s-3.244-0.033-3.863-0.238c-1.307-0.433-2.356-1.416-2.875-2.691-0.246-0.605-0.347-1.609-0.496-3.84l-0.801-12.016c-0.047-0.68-0.609-1.214-1.297-1.214-0.030 0-0.060 0.001-0.090 0.003l0.004-0z"></path>
</symbol>

<symbol id="icon-help-circle" viewBox="0 0 32 32">
<path d="M15.013 1.258c-2.304 0.229-3.781 0.632-5.573 1.523-1.56 0.776-2.61 1.533-3.867 2.792-1.259 1.258-2.016 2.307-2.792 3.867-1.064 2.139-1.525 4.12-1.525 6.56 0 2.464 0.462 4.43 1.552 6.613 0.73 1.476 1.654 2.738 2.757 3.817l0.003 0.003c1.081 1.107 2.343 2.030 3.739 2.724l0.080 0.036c2.163 1.082 4.163 1.552 6.613 1.552 2.448 0 4.461-0.474 6.613-1.552 1.476-0.731 2.738-1.655 3.817-2.758l0.002-0.003c2.374-2.373 3.803-5.312 4.242-8.725 0.091-0.709 0.091-2.738 0.002-3.414-0.251-1.866-0.693-3.33-1.482-4.906-0.731-1.476-1.655-2.738-2.759-3.817l-0.003-0.003c-1.081-1.107-2.343-2.030-3.739-2.724l-0.080-0.036c-2.078-1.040-4.003-1.51-6.346-1.552-0.573-0.011-1.136-0.010-1.254 0.002zM17.344 4.186c2.781 0.318 5.223 1.562 7.057 3.412l0.001 0.001c2.156 2.147 3.491 5.119 3.491 8.402s-1.334 6.254-3.49 8.401l-0 0c-2.147 2.156-5.119 3.491-8.402 3.491s-6.254-1.334-8.401-3.49l-0-0c-2.158-2.147-3.494-5.119-3.494-8.402s1.336-6.256 3.493-8.402l0-0c2.146-2.155 5.115-3.488 8.396-3.488 0.476 0 0.945 0.028 1.406 0.082l-0.056-0.005zM15.067 7.949c-1.427 0.219-2.858 1.115-3.65 2.285-0.309 0.456-0.635 1.162-0.701 1.518-0.214 1.165 0.998 2.051 2.069 1.509 0.342-0.173 0.494-0.358 0.757-0.917 0.43-0.92 1.23-1.499 2.15-1.557 0.778-0.048 1.376 0.166 1.942 0.696 0.723 0.677 1.006 1.728 0.659 2.453-0.267 0.56-1.144 1.248-2.227 1.749-1.056 0.486-1.149 0.544-1.333 0.816-0.096 0.141-0.2 0.355-0.234 0.477-0.136 0.506 0.098 1.187 0.507 1.485 0.234 0.17 0.653 0.31 0.922 0.31 0.422 0 1.816-0.624 2.688-1.205 1.394-0.928 2.246-1.979 2.566-3.162 0.165-0.608 0.163-1.726-0.005-2.379-0.269-1.009-0.782-1.876-1.472-2.565l-0-0c-0.675-0.664-1.523-1.156-2.469-1.401l-0.038-0.008c-0.544-0.133-1.608-0.186-2.133-0.104zM15.558 21.301c-1.024 0.381-1.32 1.622-0.568 2.374 0.291 0.291 0.56 0.398 1.010 0.402 0.325 0.003 0.448-0.022 0.658-0.128 0.466-0.229 0.781-0.7 0.781-1.245 0-0.013-0-0.026-0.001-0.039l0 0.002c0-0.012 0.001-0.026 0.001-0.040 0-0.54-0.312-1.007-0.765-1.231l-0.008-0.004c-0.31-0.155-0.824-0.198-1.107-0.091z"></path>
</symbol>

<symbol id="icon-login" viewBox="0 0 32 32">
<path d="M20.146 2.57c-2.791 0-4.946 0.502-6.482 1.748s-2.328 3.179-2.545 5.697c-0.002 0.019-0.003 0.041-0.003 0.063 0 0.392 0.3 0.713 0.683 0.747l0.003 0c0.019 0.002 0.041 0.003 0.063 0.003 0.391 0 0.712-0.299 0.747-0.681l0-0.003c0.196-2.282 0.845-3.729 1.996-4.662s2.928-1.412 5.537-1.412h0.174c2.88 0 4.732 0.573 5.877 1.719s1.719 2.997 1.719 5.877v8.693c0 2.88-0.573 4.734-1.719 5.879s-2.997 1.719-5.877 1.719h-0.174c-2.59 0-4.36-0.473-5.51-1.393s-1.801-2.34-2.010-4.58c-0.037-0.383-0.357-0.681-0.747-0.681-0.024 0-0.049 0.001-0.073 0.003l0.003-0c-0.383 0.037-0.681 0.357-0.681 0.747 0 0.024 0.001 0.049 0.003 0.073l-0-0.003c0.231 2.48 1.033 4.386 2.566 5.613s3.677 1.721 6.447 1.721h0.174c3.080 0 5.399-0.62 6.938-2.158s2.158-3.859 2.158-6.939v-8.693c0-3.080-0.62-5.399-2.158-6.938s-3.857-2.158-6.938-2.158z"></path>
<path d="M2.666 15.25c-0.414 0-0.75 0.336-0.75 0.75v0c0 0.414 0.336 0.75 0.75 0.75v0h17.174c0.414 0 0.75-0.336 0.75-0.75v0c0-0.414-0.336-0.75-0.75-0.75v0h-10.523z"></path>
<path d="M16.867 10.783c-0.001 0-0.001 0-0.002 0-0.207 0-0.394 0.084-0.529 0.219l0-0c-0.136 0.136-0.221 0.324-0.221 0.531s0.084 0.395 0.221 0.531l0.508 0.506 3.43 3.43-3.938 3.936c-0.136 0.136-0.22 0.323-0.22 0.53s0.084 0.395 0.22 0.53v0c0.136 0.136 0.323 0.22 0.53 0.22s0.395-0.084 0.53-0.22l4.467-4.467c0.136-0.136 0.22-0.323 0.22-0.53s-0.084-0.395-0.22-0.53l-4.467-4.467c-0.136-0.135-0.323-0.219-0.529-0.219v0z"></path>
</symbol>

<symbol id="icon-filter" viewBox="0 0 32 32">
<path d="M2.668 2.5c-0.828 0.001-1.499 0.672-1.499 1.5 0 0.37 0.134 0.709 0.356 0.971l-0.002-0.002 10.309 12.195v8.168c0 0 0 0 0 0.001 0 0.585 0.335 1.092 0.823 1.339l0.009 0.004 5.332 2.664c0.196 0.1 0.427 0.159 0.672 0.159 0.828 0 1.499-0.671 1.5-1.499v-10.836l10.313-12.195c0.221-0.26 0.355-0.598 0.355-0.969 0-0.829-0.672-1.5-1.5-1.5-0.001 0-0.002 0-0.003 0h0zM5.902 5.5h20.199l-8.578 10.145c-0.221 0.259-0.355 0.598-0.355 0.969v8.961l-2.336-1.168v-7.793c0-0.001 0-0.002 0-0.004 0-0.369-0.133-0.706-0.353-0.967l0.002 0.002z"></path>
</symbol>

<symbol id="icon-plus" viewBox="0 0 32 32">
<path d="M16 5.228c-0 0-0 0-0.001 0-0.794 0-1.439 0.643-1.44 1.437v18.669c0 0 0 0 0 0.001 0 0.795 0.645 1.44 1.44 1.44 0 0 0 0 0.001 0h-0c0 0 0 0 0.001 0 0.795 0 1.44-0.645 1.44-1.44 0-0 0-0 0-0.001v0-18.669c-0.001-0.794-0.646-1.438-1.44-1.438-0 0-0 0-0.001 0h0z"></path>
<path d="M6.666 14.559c-0 0-0 0-0.001 0-0.795 0-1.44 0.645-1.44 1.44 0 0 0 0 0 0.001v-0c0 0 0 0 0 0.001 0 0.795 0.645 1.44 1.44 1.44 0 0 0 0 0.001 0h18.669c0.794-0.001 1.438-0.646 1.438-1.44 0-0 0-0 0-0.001v0c0-0 0-0 0-0.001 0-0.794-0.643-1.439-1.437-1.44h-0z"></path>
</symbol>

<symbol id="icon-pencil" viewBox="0 0 32 32">
<path d="M25.332 1.605c-1.301 0-2.601 0.492-3.586 1.477l-15.039 15.039c-0.359 0.359-0.58 0.574-0.801 0.859-0.181 0.234-0.341 0.482-0.48 0.742-0.171 0.318-0.279 0.605-0.461 1.078l-0.102 0.266-2.742 7.133c-0.055 0.138-0.086 0.298-0.086 0.466 0 0.718 0.582 1.3 1.3 1.3 0.168 0 0.328-0.032 0.475-0.089l-0.009 0.003 7.398-2.844c0.473-0.182 0.76-0.29 1.078-0.461 0.26-0.14 0.508-0.302 0.742-0.484v0.004c0.285-0.221 0.501-0.442 0.859-0.801l15.039-15.039c1.969-1.97 1.969-5.202 0-7.172-0.985-0.985-2.285-1.477-3.586-1.477zM25.332 4.188c0.63 0 1.262 0.242 1.75 0.73 0.976 0.976 0.976 2.52 0 3.496l-15.043 15.039c-0.053 0.053-0.046 0.042-0.090 0.086-0.077-0.070-0.116-0.209-0.191-0.285l-3.012-3.012c-0.076-0.076-0.219-0.114-0.289-0.191 0.045-0.045 0.035-0.039 0.090-0.094l15.039-15.039c0.488-0.488 1.116-0.73 1.746-0.73zM7.16 22.332l2.504 2.508-4.066 1.563z"></path>
</symbol>

<symbol id="icon-arrow-circle" viewBox="0 0 32 32">
<path d="M16 1.367c-5.406 0-10.145 2.942-12.676 7.316-0.109 0.186-0.173 0.409-0.173 0.648 0 0.478 0.258 0.897 0.643 1.122l0.006 0.003c0.186 0.109 0.41 0.174 0.65 0.174 0.477 0 0.894-0.257 1.121-0.641l0.003-0.006c2.080-3.596 5.961-6.016 10.426-6.016 6.661 0 12.031 5.37 12.031 12.031s-5.37 12.035-12.031 12.035c-4.464 0-8.345-2.423-10.426-6.020-0.229-0.389-0.647-0.647-1.124-0.647-0.239 0-0.463 0.065-0.656 0.177l0.006-0.003c-0.391 0.229-0.649 0.647-0.649 1.126 0 0.238 0.064 0.462 0.176 0.654l-0.003-0.006c2.53 4.374 7.27 7.316 12.676 7.316 8.066 0 14.633-6.566 14.633-14.633s-6.566-14.633-14.633-14.633z"></path>
<path d="M15.082 9.746c-0.236 0.235-0.381 0.561-0.381 0.92s0.146 0.685 0.381 0.92v0l4.414 4.414-4.414 4.414c-0.236 0.235-0.381 0.561-0.381 0.92s0.146 0.685 0.381 0.92v0c0.235 0.235 0.56 0.38 0.918 0.38s0.683-0.145 0.918-0.38l5.336-5.336c0.234-0.235 0.379-0.56 0.379-0.918s-0.145-0.683-0.379-0.918l-5.336-5.336c-0.235-0.235-0.56-0.38-0.918-0.38s-0.683 0.145-0.918 0.38l0-0z"></path>
<path d="M2.668 14.699c-0 0-0.001 0-0.001 0-0.718 0-1.3 0.582-1.3 1.3 0 0 0 0.001 0 0.001v-0c0 0 0 0 0 0.001 0 0.718 0.582 1.3 1.3 1.3 0 0 0.001 0 0.001 0h18.664c0 0 0 0 0.001 0 0.718 0 1.3-0.582 1.3-1.3 0-0 0-0.001 0-0.001v0c0-0 0-0.001 0-0.001 0-0.718-0.582-1.3-1.3-1.3-0 0-0.001 0-0.001 0h0z"></path>
</symbol>

<symbol id="icon-x-close" viewBox="0 0 32 32">
<path d="M23.056 7.056l-2.483 2.486-13.517 13.514c-0.242 0.241-0.392 0.575-0.392 0.944s0.15 0.703 0.392 0.944l0 0c0.241 0.242 0.575 0.392 0.944 0.392s0.703-0.15 0.944-0.392l16-16c0.242-0.241 0.392-0.575 0.392-0.944s-0.15-0.703-0.392-0.944l-0-0c-0.241-0.242-0.575-0.392-0.944-0.392s-0.703 0.15-0.944 0.392l-0 0z"></path>
<path d="M8 6.667c-0.001 0-0.002 0-0.003 0-0.367 0-0.7 0.149-0.941 0.389l0-0c-0.242 0.241-0.392 0.575-0.392 0.944s0.15 0.703 0.392 0.944l16 16c0.241 0.242 0.575 0.392 0.944 0.392s0.703-0.15 0.944-0.392l0-0c0.242-0.241 0.392-0.575 0.392-0.944s-0.15-0.703-0.392-0.944l-16-16c-0.241-0.24-0.574-0.389-0.941-0.389-0.001 0-0.002 0-0.003 0h0z"></path>
</symbol>

<symbol id="icon-star" viewBox="0 0 32 32">
<path d="M16 1.333c-0.564 0.001-1.045 0.351-1.24 0.845l-0.003 0.009-2.684 6.976c-0.376 0.978-0.538 1.359-0.698 1.583-0.173 0.243-0.386 0.456-0.628 0.628-0.224 0.16-0.606 0.322-1.583 0.698l-6.976 2.684c-0.502 0.199-0.851 0.68-0.851 1.243s0.349 1.044 0.842 1.24l0.009 0.003 6.976 2.684c0.978 0.376 1.359 0.538 1.583 0.698 0.243 0.173 0.456 0.386 0.628 0.628 0.16 0.224 0.322 0.606 0.698 1.583l2.684 6.976c0.199 0.502 0.68 0.851 1.243 0.851s1.044-0.349 1.24-0.842l0.003-0.009 2.684-6.976c0.376-0.978 0.538-1.359 0.698-1.583 0.173-0.243 0.386-0.456 0.628-0.628 0.224-0.16 0.606-0.322 1.583-0.698l6.976-2.684c0.502-0.199 0.851-0.68 0.851-1.243s-0.349-1.044-0.842-1.24l-0.009-0.003-6.976-2.684c-0.978-0.376-1.359-0.538-1.583-0.698-0.243-0.173-0.456-0.386-0.628-0.628-0.16-0.224-0.322-0.606-0.698-1.583l-2.684-6.976c-0.198-0.504-0.68-0.854-1.243-0.854h-0zM16 6.382l1.438 3.74c0.376 0.978 0.588 1.572 1.014 2.17 0.345 0.486 0.771 0.911 1.257 1.257 0.598 0.425 1.193 0.638 2.17 1.014l3.74 1.438-3.74 1.438c-0.977 0.376-1.572 0.588-2.17 1.014-0.486 0.346-0.911 0.771-1.257 1.257-0.425 0.598-0.638 1.193-1.014 2.17l-1.438 3.74-1.438-3.74c-0.376-0.978-0.589-1.572-1.014-2.17-0.345-0.486-0.771-0.911-1.257-1.257-0.598-0.425-1.193-0.638-2.17-1.014l-3.74-1.438 3.74-1.438c0.978-0.376 1.572-0.589 2.17-1.014 0.486-0.345 0.911-0.771 1.257-1.257 0.425-0.598 0.638-1.193 1.014-2.17z"></path>
</symbol>

<symbol id="icon-loading" viewBox="0 0 32 32">
<path d="M16 1.34c-2.194 0-4.322 0.639-6.337 1.615-0.33 0.133-0.681 0.161-0.997 0.344-0.050 0.112-0.085 0.243-0.1 0.379l-0.001 0.006c-1.005 0.603-2.072 1.079-2.938 1.944-4.528 4.528-5.319 11.243-2.674 16.708 0.133 0.329 0.162 0.681 0.344 0.997 0.157 0.224 0.377 0.395 0.633 0.49l0.009 0.003c0.553 0.857 0.938 1.795 1.687 2.545 4.528 4.528 11.243 5.319 16.708 2.674 0.331-0.133 0.683-0.161 1-0.344 0.259-0.16 0.456-0.398 0.56-0.682l0.003-0.009c0.83-0.543 1.744-0.91 2.472-1.639 4.528-4.528 5.319-11.243 2.674-16.708-0.133-0.33-0.161-0.681-0.344-0.997-0.157-0.224-0.377-0.395-0.633-0.49l-0.009-0.003c-0.553-0.857-0.938-1.795-1.688-2.545-2.858-2.858-6.615-4.288-10.372-4.288zM17.531 4.292c2.53 0.331 5.005 1.272 6.955 3.222 0.881 0.881 1.432 1.934 1.983 2.979 0.988 2.207 0.438 4.804-1.611 6.191-0.001 0-0.001 0-0.002 0s-0.001 0-0.002 0h0c-1.761 1.189-4.064 1.152-5.781-0.097l-1.208-0.878 0.882-1.212c1.904-2.618 1.961-6.161 0.149-8.844 0.005 0.002 0.003 0.001 0.001 0l-0.008-0.003-0.021-0.021c-0.368-0.539-0.866-0.922-1.337-1.337zM13.646 5.056c1.198 0.276 2.295 0.989 3.038 2.087 0.001 0.001 0.002 0.002 0.003 0.003l0 0c1.189 1.761 1.148 4.064-0.101 5.781l-0.878 1.212-1.212-0.882c-2.619-1.903-6.162-1.965-8.844-0.153-0.074 0.051-0.139 0.106-0.198 0.166l-0 0 0.194-0.16c-0.55 0.373-0.936 0.881-1.358 1.361 0.33-2.532 1.271-5.007 3.222-6.958 0.88-0.88 1.934-1.429 2.979-1.979 1.024-0.458 2.117-0.718 3.153-0.479zM10.052 14.451c1.011 0.017 2.016 0.341 2.875 0.965v-0.003l1.212 0.882-0.878 1.208c-1.903 2.619-1.965 6.162-0.153 8.844 0.001 0.001 0.003 0.003 0.004 0.004l-0-0c0.373 0.55 0.882 0.936 1.361 1.358-2.532-0.33-5.007-1.271-6.958-3.222-0.88-0.88-1.432-1.935-1.983-2.979-0.987-2.21-0.433-4.804 1.615-6.191 0.88-0.595 1.896-0.882 2.906-0.865zM27.708 17.531c-0.331 2.53-1.272 5.005-3.222 6.955-0.881 0.881-1.937 1.432-2.983 1.983-2.209 0.983-4.798 0.431-6.184-1.615-1.189-1.759-1.152-4.066 0.097-5.785l0.878-1.205 1.208 0.878c2.618 1.904 6.161 1.965 8.844 0.153 0.074-0.050 0.139-0.104 0.198-0.163v0-0.004l-0.194 0.16c0.55-0.372 0.936-0.879 1.358-1.358z"></path>
</symbol>

<symbol id="icon-puzzle-piece" viewBox="0 0 32 32">
<path d="M15.056 1.722l-4.799 4.802c-0.241 0.241-0.389 0.574-0.389 0.942 0 0.566 0.352 1.049 0.849 1.243l0.009 0.003c1.834 0.699 2.428 1.547 2.594 2.198s-0.076 1.326-0.58 1.83c-0.504 0.504-1.179 0.745-1.83 0.58s-1.499-0.76-2.198-2.594c-0.197-0.506-0.68-0.858-1.246-0.858-0.368 0-0.7 0.149-0.942 0.389l-4.802 4.799c-0.242 0.241-0.392 0.575-0.392 0.944s0.15 0.703 0.392 0.944l3.618 3.615c-1.292 0.851-2.277 1.849-2.576 3.028-0.422 1.662 0.198 3.292 1.278 4.372s2.71 1.7 4.372 1.278c1.179-0.3 2.177-1.285 3.028-2.576l3.615 3.618c0.241 0.242 0.575 0.392 0.944 0.392s0.703-0.15 0.944-0.392l4.799-4.802c0.241-0.241 0.389-0.574 0.389-0.942 0-0.566-0.352-1.049-0.849-1.243l-0.009-0.003c-1.834-0.699-2.428-1.547-2.594-2.198s0.076-1.326 0.58-1.83c0.504-0.504 1.179-0.745 1.83-0.58s1.499 0.76 2.198 2.594c0.197 0.506 0.68 0.858 1.246 0.858 0.368 0 0.7-0.149 0.942-0.389l4.802-4.799c0.242-0.241 0.392-0.575 0.392-0.944s-0.15-0.703-0.392-0.944l-3.618-3.615c1.291-0.851 2.277-1.849 2.576-3.028 0.422-1.662-0.198-3.292-1.278-4.372s-2.71-1.7-4.372-1.278c-1.179 0.3-2.177 1.285-3.028 2.576l-3.615-3.618c-0.241-0.242-0.575-0.392-0.944-0.392s-0.703 0.15-0.944 0.392l-0 0zM16 4.556l3.858 3.854c0.241 0.241 0.574 0.389 0.942 0.389 0.566 0 1.049-0.352 1.243-0.849l0.003-0.009c0.699-1.834 1.547-2.428 2.198-2.594s1.326 0.076 1.83 0.58c0.504 0.504 0.745 1.179 0.58 1.83s-0.76 1.499-2.594 2.198c-0.506 0.197-0.858 0.68-0.858 1.246 0 0.368 0.149 0.7 0.389 0.942l3.854 3.858-2.67 2.674c-0.851-1.291-1.849-2.277-3.028-2.576-1.662-0.422-3.292 0.198-4.372 1.278s-1.7 2.71-1.278 4.372c0.3 1.179 1.285 2.177 2.576 3.028l-2.674 2.67-3.858-3.854c-0.241-0.241-0.574-0.389-0.942-0.389-0.566 0-1.049 0.352-1.243 0.849l-0.003 0.009c-0.699 1.834-1.547 2.428-2.198 2.594s-1.326-0.076-1.83-0.58c-0.504-0.504-0.745-1.179-0.58-1.83s0.76-1.499 2.594-2.198c0.506-0.197 0.858-0.68 0.858-1.246 0-0.368-0.149-0.7-0.389-0.942l-3.854-3.858 2.67-2.674c0.851 1.292 1.849 2.277 3.028 2.576 1.662 0.422 3.292-0.198 4.372-1.278s1.7-2.71 1.278-4.372c-0.3-1.179-1.285-2.177-2.576-3.028z"></path>
</symbol>

<symbol id="icon-container" viewBox="0 0 32 32">
<path d="M15.462 1.58c-0.476 0.098-0.768 0.286-1.146 0.497l-9.865 5.483c-0.399 0.222-0.733 0.374-1.080 0.75-0.257 0.279-0.45 0.612-0.569 0.972-0.16 0.486-0.135 0.849-0.135 1.306v10.823c0 0.457-0.025 0.823 0.135 1.309 0.119 0.36 0.312 0.689 0.569 0.969 0 0.001 0 0.001 0 0.002s0 0.001 0 0.002v-0c0.347 0.376 0.681 0.528 1.080 0.75l9.865 5.483c0.378 0.21 0.67 0.398 1.146 0.497 0.354 0.073 0.722 0.073 1.076 0 0.476-0.098 0.768-0.287 1.146-0.497l9.865-5.483c0.001 0 0.001 0 0.002 0s0.001 0 0.002 0h-0c0.399-0.222 0.73-0.374 1.076-0.75 0.258-0.28 0.451-0.612 0.569-0.972 0.161-0.486 0.135-0.852 0.135-1.309v-10.823c0-0.457 0.025-0.82-0.135-1.306-0.119-0.36-0.312-0.693-0.569-0.972-0.346-0.376-0.677-0.528-1.076-0.75-0.001 0-0.001 0-0.002 0s-0.001 0-0.002 0h0l-9.864-5.483c-0.378-0.21-0.67-0.399-1.146-0.497-0.354-0.073-0.722-0.073-1.076 0zM16 4.191c-0.076-0.016 0.011 0.005 0.389 0.215l8.868 4.927-9.257 5.142-9.253-5.142 8.865-4.927c0.378-0.21 0.465-0.231 0.389-0.215zM5.333 11.597l9.333 5.188v10.285l-8.92-4.958c-0.399-0.222-0.469-0.29-0.413-0.229 0.026 0.078 0-0.015 0-0.472zM26.667 11.597v9.813c0 0.457-0.026 0.551 0 0.472 0.056-0.060-0.014 0.007-0.413 0.229l-8.92 4.958v-10.285z"></path>
</symbol>

<symbol id="icon-lightning" viewBox="0 0 32 32">
<path d="M11.326 1.333c-0.239 0-0.5-0.030-0.899 0.108-0.28 0.097-0.538 0.254-0.75 0.462 0 0 0 0.001 0 0.002s0 0.001 0 0.002v-0c-0.302 0.295-0.393 0.539-0.5 0.753l-5.597 11.201c-0.256 0.511-0.611 0.87-0.479 1.764 0.080 0.544 0.38 1.032 0.83 1.347 0.74 0.518 1.224 0.361 1.795 0.361h6.483l-3.486 11.618c-0.035 0.114-0.056 0.246-0.056 0.382 0 0.736 0.597 1.333 1.333 1.333 0.376 0 0.716-0.156 0.958-0.406l0-0 16.257-16.861c0.274-0.284 0.493-0.506 0.698-0.76s0.475-0.588 0.514-1.174c0.042-0.633-0.221-1.251-0.705-1.66-0.448-0.379-0.876-0.419-1.201-0.448s-0.636-0.024-1.031-0.024h-7.566l2.323-6.198c0.054-0.139 0.085-0.3 0.085-0.469 0-0.736-0.596-1.332-1.331-1.333h-0zM11.49 4h5.583l-2.323 6.198c-0.054 0.139-0.085 0.3-0.085 0.469 0 0.736 0.597 1.333 1.333 1.333 0.001 0 0.001 0 0.002 0h8.864l-12.007 12.444 2.42-8.063c0.035-0.114 0.056-0.246 0.056-0.382 0-0.736-0.597-1.333-1.333-1.333-0 0-0 0-0 0h-7.844z"></path>
</symbol>

<symbol id="icon-colors" viewBox="0 0 32 32">
<path d="M16 1.333c-5.139 0-9.333 4.194-9.333 9.333 0 0.768 0.264 1.452 0.441 2.167-3.362 1.415-5.774 4.639-5.774 8.5 0 5.139 4.194 9.333 9.333 9.333 2.004 0 3.764-0.774 5.288-1.858 1.534 1.105 3.35 1.858 5.378 1.858 5.139 0 9.333-4.194 9.333-9.333 0-3.861-2.413-7.085-5.774-8.5 0.177-0.715 0.441-1.399 0.441-2.167 0-5.139-4.194-9.333-9.333-9.333zM16 4c3.698 0 6.667 2.969 6.667 6.667s-2.969 6.667-6.667 6.667c-3.698 0-6.667-2.969-6.667-6.667s2.969-6.667 6.667-6.667zM8.153 15.403c1.64 2.695 4.474 4.597 7.847 4.597 0.369 0 0.683-0.17 1.042-0.212 0.124 0.507 0.292 0.997 0.292 1.545 0 3.698-2.969 6.667-6.667 6.667s-6.667-2.969-6.667-6.667c0-2.755 1.787-4.91 4.153-5.931zM23.847 15.403c2.366 1.020 4.153 3.175 4.153 5.931 0 3.698-2.969 6.667-6.667 6.667-1.275 0-2.398-0.443-3.406-1.059 1.223-1.579 2.073-3.465 2.073-5.608 0-0.727-0.234-1.384-0.392-2.066 1.821-0.769 3.221-2.191 4.24-3.865z"></path>
</symbol>

<symbol id="icon-hexagon" viewBox="0 0 32 32">
<path d="M15.462 1.58c-0.476 0.098-0.768 0.286-1.146 0.497l-9.865 5.483c-0.399 0.222-0.733 0.374-1.080 0.75-0.257 0.279-0.45 0.612-0.569 0.972-0.16 0.486-0.135 0.849-0.135 1.306v10.823c0 0.457-0.025 0.823 0.135 1.309 0.119 0.36 0.312 0.689 0.569 0.969 0 0.001 0 0.001 0 0.002s0 0.001 0 0.002v-0c0.347 0.376 0.681 0.528 1.080 0.75l9.865 5.483c0.378 0.21 0.67 0.398 1.146 0.497 0.354 0.073 0.722 0.073 1.076 0 0.476-0.098 0.768-0.287 1.146-0.497l9.865-5.483c0.001 0 0.001 0 0.002 0s0.001 0 0.002 0h-0c0.399-0.222 0.73-0.374 1.076-0.75 0.258-0.28 0.451-0.612 0.569-0.972 0.161-0.486 0.135-0.852 0.135-1.309v-10.823c0-0.457 0.025-0.82-0.135-1.306-0.119-0.36-0.312-0.693-0.569-0.972-0.346-0.376-0.677-0.528-1.076-0.75-0.001 0-0.001 0-0.002 0s-0.001 0-0.002 0h0l-9.864-5.483c-0.378-0.21-0.67-0.399-1.146-0.497-0.355-0.073-0.722-0.073-1.076 0zM16 4.191c-0.076-0.016 0.011 0.005 0.389 0.215l9.868 5.483c0.392 0.218 0.465 0.289 0.41 0.229-0.026-0.078 0 0.012 0 0.469v10.823c0 0.457-0.026 0.551 0 0.472 0.056-0.060-0.014 0.007-0.413 0.229l-9.865 5.479c-0.378 0.21-0.464 0.234-0.389 0.219 0.076 0.016-0.011-0.009-0.389-0.219v0.004l-9.865-5.483c-0.399-0.222-0.469-0.29-0.413-0.229 0.026 0.078 0-0.015 0-0.472v-10.823c0-0.457 0.026-0.547 0-0.469-0.056 0.061 0.014-0.007 0.413-0.229l9.865-5.483c0.378-0.21 0.465-0.231 0.389-0.215z"></path>
</symbol>

<symbol id="icon-eye" viewBox="0 0 32 32">
<path d="M16 4.177c-10.214 0-15.701 11.306-15.701 11.306-0.077 0.151-0.122 0.329-0.122 0.517s0.045 0.367 0.125 0.524l-0.003-0.007c0 0 5.488 11.306 15.701 11.306s15.701-11.306 15.701-11.306c0.077-0.151 0.122-0.329 0.122-0.517s-0.045-0.367-0.125-0.524l0.003 0.007c0 0-5.488-11.306-15.701-11.306zM16 6.49c8.017 0 12.755 8.581 13.257 9.51-0.502 0.93-5.24 9.51-13.257 9.51s-12.755-8.581-13.257-9.51c0.502-0.93 5.24-9.51 13.257-9.51z"></path>
<path d="M16 10.844c-2.834 0-5.156 2.323-5.156 5.156s2.323 5.156 5.156 5.156c2.834 0 5.156-2.323 5.156-5.156s-2.323-5.156-5.156-5.156zM16 13.156c1.585 0 2.844 1.259 2.844 2.844s-1.259 2.844-2.844 2.844c-1.585 0-2.844-1.259-2.844-2.844s1.259-2.844 2.844-2.844z"></path>
</symbol>

<symbol id="icon-user-avatar" viewBox="0 0 32 32">
<path fill="#f6f6f7" style="fill: var(--color1, #f6f6f7)" d="M3.765 0h24.471c2.079 0 3.765 1.686 3.765 3.765v24.471c0 2.079-1.686 3.765-3.765 3.765h-24.471c-2.079 0-3.765-1.686-3.765-3.765v-24.471c0-2.079 1.686-3.765 3.765-3.765z"></path>
<path fill="#fff" style="fill: var(--color2, #fff)" d="M21.49 14.745c0 2.946-2.388 5.333-5.333 5.333s-5.333-2.388-5.333-5.333c0-2.946 2.388-5.333 5.333-5.333s5.333 2.388 5.333 5.333z"></path>
<path fill="#fff" style="fill: var(--color2, #fff)" d="M29.060 32.853c0-1.723-0.339-3.429-0.999-5.020s-1.626-3.038-2.844-4.256c-1.218-1.218-2.664-2.184-4.256-2.844s-3.297-0.999-5.020-0.999c-1.723 0-3.429 0.339-5.020 0.999s-3.038 1.626-4.256 2.844c-1.218 1.218-2.184 2.664-2.844 4.256s-0.999 3.297-0.999 5.020h26.237z"></path>
</symbol>

</defs>
</svg>
